<svg width="42" height="42" viewBox="0 0 42 42" fill="none" xmlns="http://www.w3.org/2000/svg">
<path fillRule="evenodd" clipRule="evenodd" d="M25.8551 10.8889C25.3028 10.8889 24.8551 11.3366 24.8551 11.8889V12.4444H10.5555C9.45097 12.4444 8.55554 13.3399 8.55554 14.4444V29.1111C8.55554 30.2157 9.45097 31.1111 10.5555 31.1111H30.6667C31.7712 31.1111 32.6667 30.2157 32.6667 29.1111V14.4444C32.6667 13.3399 31.7712 12.4444 30.6667 12.4444H30.3333V11.8889C30.3333 11.3366 29.8856 10.8889 29.3333 10.8889H25.8551ZM27.2222 22.1667C27.2222 25.8179 24.2623 28.7778 20.6111 28.7778C16.9599 28.7778 14 25.8179 14 22.1667C14 18.5154 16.9599 15.5556 20.6111 15.5556C24.2623 15.5556 27.2222 18.5154 27.2222 22.1667Z" fill="white"/>
<circle cx="21" cy="21" r="20" stroke="white" stroke-width="2"/>
</svg>
