<svg width="27" height="29" viewBox="0 0 27 29" fill="none" xmlns="http://www.w3.org/2000/svg">
<path fillRule="evenodd" clipRule="evenodd" d="M0.88916 24.515C-0.153711 25.7175 0.164487 27.4005 1.59988 28.2742C3.03526 29.1478 5.04429 28.8812 6.08716 27.6788L13.6377 18.9727L21.1883 27.6788C22.2311 28.8812 24.2402 29.1478 25.6756 28.2742C27.1109 27.4005 27.4291 25.7175 26.3863 24.515L17.6086 14.3941L26.3862 4.27329C27.4291 3.07083 27.1109 1.38781 25.6755 0.514171C24.2401 -0.35947 22.2311 -0.0929076 21.1882 1.10956L13.6377 9.81554L6.08721 1.10956C5.04434 -0.0929076 3.03531 -0.35947 1.59992 0.514171C0.164533 1.38781 -0.153666 3.07083 0.889206 4.27329L9.66679 14.3941L0.88916 24.515Z" fill="white"/>
</svg>
